<?xml version="1.0" standalone="no"?>
<!DOCTYPE svg PUBLIC "-//W3C//DTD SVG 20010904//EN"
 "http://www.w3.org/TR/2001/REC-SVG-20010904/DTD/svg10.dtd">
<svg version="1.0" xmlns="http://www.w3.org/2000/svg"
 width="8000.000000pt" height="4848.000000pt" viewBox="0 0 8000.000000 4848.000000"
 preserveAspectRatio="xMidYMid meet">

<g transform="translate(0.000000,4848.000000) scale(0.100000,-0.100000)"
fill="#000000" stroke="none">
<path d="M31828 37391 c-43 -4 -80 -10 -83 -13 -4 -4 -1 -17 6 -29 42 -79 51
-229 19 -330 -63 -205 -260 -376 -601 -523 -253 -109 -391 -193 -528 -322
-104 -98 -164 -177 -217 -289 -102 -213 -118 -454 -48 -729 63 -254 212 -550
427 -851 134 -188 380 -468 532 -606 74 -67 89 -107 81 -216 -37 -490 -113
-862 -256 -1260 -23 -63 -40 -116 -38 -118 20 -18 329 -186 453 -246 506 -243
898 -331 1175 -263 77 19 182 72 238 119 94 81 164 238 182 406 10 105 9 122
-36 304 -51 213 -75 365 -81 526 -7 167 -17 148 92 169 216 41 419 97 471 129
128 79 195 412 165 831 -38 525 -188 1249 -329 1580 -39 93 -75 156 -135 238
-21 30 -37 54 -35 56 1 1 36 26 76 56 169 126 250 281 239 459 -9 163 -76 292
-231 447 -235 234 -588 396 -1001 459 -114 18 -422 27 -537 16z"/>
<path d="M45245 34485 c-138 -18 -169 -23 -254 -47 -286 -78 -547 -269 -714
-523 -82 -125 -113 -190 -162 -337 l-41 -127 104 -213 c57 -117 129 -264 158
-327 l54 -114 68 6 c232 22 503 205 708 479 78 104 139 209 224 383 61 126 94
182 164 280 27 39 76 121 108 182 46 89 58 122 58 158 0 77 -38 128 -120 163
-104 44 -210 55 -355 37z"/>
<path d="M44319 32723 c-13 -16 -12 -17 4 -4 16 13 21 21 13 21 -2 0 -10 -8
-17 -17z"/>
<path d="M44285 32689 c-4 -6 -5 -12 -2 -15 2 -3 7 2 10 11 7 17 1 20 -8 4z"/>
<path d="M44039 32403 c-13 -16 -12 -17 4 -4 16 13 21 21 13 21 -2 0 -10 -8
-17 -17z"/>
<path d="M43389 31663 c-13 -16 -12 -17 4 -4 9 7 17 15 17 17 0 8 -8 3 -21
-13z"/>
<path d="M43099 31333 l-24 -28 28 24 c25 23 32 31 24 31 -2 0 -14 -12 -28
-27z"/>
<path d="M42849 31053 l-24 -28 28 24 c25 23 32 31 24 31 -2 0 -14 -12 -28
-27z"/>
<path d="M42749 30943 c-13 -16 -12 -17 4 -4 9 7 17 15 17 17 0 8 -8 3 -21
-13z"/>
<path d="M42656 30844 c-23 -23 -20 -30 4 -9 11 10 20 20 20 22 0 7 -9 2 -24
-13z"/>
<path d="M13504 30655 c10 -60 -10 -157 -46 -234 -82 -171 -300 -292 -609
-336 -63 -9 -159 -22 -214 -30 -222 -31 -442 -119 -584 -233 -331 -265 -411
-734 -235 -1376 58 -210 154 -457 264 -676 51 -102 130 -240 130 -228 1 42 50
248 81 341 142 425 416 755 778 936 255 129 470 171 898 177 182 2 304 8 369
19 261 42 441 149 520 310 32 65 37 86 42 168 19 362 -311 772 -823 1023 -168
82 -361 145 -544 178 l-33 6 6 -45z"/>
<path d="M42329 30483 l-24 -28 28 24 c25 23 32 31 24 31 -2 0 -14 -12 -28
-27z"/>
<path d="M42070 30205 c-29 -30 -52 -56 -49 -58 2 -1 28 23 58 55 69 73 63 76
-9 3z"/>
<path d="M41809 29923 c-13 -16 -12 -17 4 -4 9 7 17 15 17 17 0 8 -8 3 -21
-13z"/>
<path d="M41764 29878 l-19 -23 23 19 c21 18 27 26 19 26 -2 0 -12 -10 -23
-22z"/>
<path d="M41699 29813 l-34 -38 38 34 c34 33 42 41 34 41 -2 0 -19 -17 -38
-37z"/>
<path d="M41639 29753 c-13 -16 -12 -17 4 -4 16 13 21 21 13 21 -2 0 -10 -8
-17 -17z"/>
<path d="M41425 29538 l-40 -43 43 40 c23 21 42 40 42 42 0 8 -9 0 -45 -39z"/>
<path d="M36548 29403 c6 -2 18 -2 25 0 6 3 1 5 -13 5 -14 0 -19 -2 -12 -5z"/>
<path d="M37478 29263 c7 -3 16 -2 19 1 4 3 -2 6 -13 5 -11 0 -14 -3 -6 -6z"/>
<path d="M37538 29253 c6 -2 18 -2 25 0 6 3 1 5 -13 5 -14 0 -19 -2 -12 -5z"/>
<path d="M37608 29243 c6 -2 18 -2 25 0 6 3 1 5 -13 5 -14 0 -19 -2 -12 -5z"/>
<path d="M37678 29233 c6 -2 18 -2 25 0 6 3 1 5 -13 5 -14 0 -19 -2 -12 -5z"/>
<path d="M41028 29233 c6 -2 18 -2 25 0 6 3 1 5 -13 5 -14 0 -19 -2 -12 -5z"/>
<path d="M37753 29223 c9 -2 23 -2 30 0 6 3 -1 5 -18 5 -16 0 -22 -2 -12 -5z"/>
<path d="M40978 29223 c7 -3 16 -2 19 1 4 3 -2 6 -13 5 -11 0 -14 -3 -6 -6z"/>
<path d="M37823 29213 c9 -2 23 -2 30 0 6 3 -1 5 -18 5 -16 0 -22 -2 -12 -5z"/>
<path d="M40898 29213 c6 -2 18 -2 25 0 6 3 1 5 -13 5 -14 0 -19 -2 -12 -5z"/>
<path d="M37903 29203 c9 -2 23 -2 30 0 6 3 -1 5 -18 5 -16 0 -22 -2 -12 -5z"/>
<path d="M40838 29203 c7 -3 16 -2 19 1 4 3 -2 6 -13 5 -11 0 -14 -3 -6 -6z"/>
<path d="M37983 29193 c9 -2 23 -2 30 0 6 3 -1 5 -18 5 -16 0 -22 -2 -12 -5z"/>
<path d="M40753 29193 c9 -2 25 -2 35 0 9 3 1 5 -18 5 -19 0 -27 -2 -17 -5z"/>
<path d="M38073 29183 c9 -2 25 -2 35 0 9 3 1 5 -18 5 -19 0 -27 -2 -17 -5z"/>
<path d="M40673 29183 c9 -2 25 -2 35 0 9 3 1 5 -18 5 -19 0 -27 -2 -17 -5z"/>
<path d="M38163 29173 c9 -2 25 -2 35 0 9 3 1 5 -18 5 -19 0 -27 -2 -17 -5z"/>
<path d="M40603 29173 c9 -2 23 -2 30 0 6 3 -1 5 -18 5 -16 0 -22 -2 -12 -5z"/>
<path d="M38253 29163 c9 -2 25 -2 35 0 9 3 1 5 -18 5 -19 0 -27 -2 -17 -5z"/>
<path d="M40503 29163 c9 -2 25 -2 35 0 9 3 1 5 -18 5 -19 0 -27 -2 -17 -5z"/>
<path d="M38353 29153 c9 -2 25 -2 35 0 9 3 1 5 -18 5 -19 0 -27 -2 -17 -5z"/>
<path d="M40408 29153 c12 -2 30 -2 40 0 9 3 -1 5 -23 4 -22 0 -30 -2 -17 -4z"/>
<path d="M38483 29143 c15 -2 37 -2 50 0 12 2 0 4 -28 4 -27 0 -38 -2 -22 -4z"/>
<path d="M40298 29143 c12 -2 30 -2 40 0 9 3 -1 5 -23 4 -22 0 -30 -2 -17 -4z"/>
<path d="M38613 29133 c15 -2 39 -2 55 0 15 2 2 4 -28 4 -30 0 -43 -2 -27 -4z"/>
<path d="M40168 29133 c12 -2 32 -2 45 0 12 2 2 4 -23 4 -25 0 -35 -2 -22 -4z"/>
<path d="M38763 29123 c15 -2 39 -2 55 0 15 2 2 4 -28 4 -30 0 -43 -2 -27 -4z"/>
<path d="M38858 29123 c7 -3 16 -2 19 1 4 3 -2 6 -13 5 -11 0 -14 -3 -6 -6z"/>
<path d="M40023 29123 c15 -2 37 -2 50 0 12 2 0 4 -28 4 -27 0 -38 -2 -22 -4z"/>
<path d="M38978 29113 c23 -2 59 -2 80 0 20 2 1 4 -43 4 -44 0 -61 -2 -37 -4z"/>
<path d="M39803 29113 c20 -2 54 -2 75 0 20 2 3 4 -38 4 -41 0 -58 -2 -37 -4z"/>
<path d="M39363 29103 c37 -2 96 -2 130 0 34 2 4 3 -68 3 -71 0 -99 -1 -62 -3z"/>
<path d="M64179 28096 c-2 -2 -42 -7 -89 -11 -114 -9 -347 -55 -503 -99 -231
-65 -574 -203 -772 -310 -93 -50 -121 -85 -208 -261 -100 -202 -149 -397 -150
-600 -1 -323 79 -508 474 -1101 213 -320 329 -505 388 -619 110 -211 188 -421
211 -565 14 -93 12 -251 -5 -347 -21 -125 -63 -494 -80 -713 -35 -460 -40
-602 -40 -1115 0 -530 7 -686 41 -955 25 -193 83 -450 102 -450 20 0 405 70
409 74 3 2 -7 55 -20 118 -91 408 -132 802 -109 1055 7 76 17 142 21 146 5 5
12 -20 16 -55 36 -344 97 -737 141 -913 28 -110 91 -305 104 -318 6 -7 616
108 681 128 14 5 13 16 -8 108 -39 175 -29 181 45 25 l52 -110 38 7 c172 32
833 192 1057 256 126 37 476 148 483 154 5 4 -50 547 -68 670 -16 112 -17 135
-5 124 16 -17 125 -414 183 -670 l17 -77 80 37 c44 20 95 44 114 55 l34 18 -7
101 c-19 293 -97 956 -177 1512 -28 193 -53 368 -56 390 -24 200 -172 1001
-253 1365 -50 223 -50 226 -60 283 -19 104 -154 629 -226 879 -42 144 -85 292
-95 328 -64 228 -235 710 -304 855 -116 243 -337 429 -624 525 -163 55 -297
73 -577 77 -138 2 -252 1 -255 -1z"/>
<path d="M29380 27326 c0 -2 7 -7 16 -10 8 -3 12 -2 9 4 -6 10 -25 14 -25 6z"/>
<path d="M29521 27084 c0 -11 3 -14 6 -6 3 7 2 16 -1 19 -3 4 -6 -2 -5 -13z"/>
<path d="M29551 26990 c0 -8 4 -24 9 -35 5 -13 9 -14 9 -5 0 8 -4 24 -9 35 -5
13 -9 14 -9 5z"/>
<path d="M29581 26884 c0 -11 3 -14 6 -6 3 7 2 16 -1 19 -3 4 -6 -2 -5 -13z"/>
<path d="M29591 26850 c0 -8 4 -24 9 -35 5 -13 9 -14 9 -5 0 8 -4 24 -9 35 -5
13 -9 14 -9 5z"/>
<path d="M29631 26684 c0 -11 3 -14 6 -6 3 7 2 16 -1 19 -3 4 -6 -2 -5 -13z"/>
<path d="M29642 26640 c0 -14 2 -19 5 -12 2 6 2 18 0 25 -3 6 -5 1 -5 -13z"/>
<path d="M29651 26584 c0 -11 3 -14 6 -6 3 7 2 16 -1 19 -3 4 -6 -2 -5 -13z"/>
<path d="M29661 26524 c0 -11 3 -14 6 -6 3 7 2 16 -1 19 -3 4 -6 -2 -5 -13z"/>
<path d="M29672 26470 c0 -14 2 -19 5 -12 2 6 2 18 0 25 -3 6 -5 1 -5 -13z"/>
<path d="M29681 26404 c0 -11 3 -14 6 -6 3 7 2 16 -1 19 -3 4 -6 -2 -5 -13z"/>
<path d="M29701 26274 c0 -11 3 -14 6 -6 3 7 2 16 -1 19 -3 4 -6 -2 -5 -13z"/>
<path d="M32090 24740 c-231 -27 -361 -67 -568 -174 -17 -10 -36 -25 -41 -34
-5 -9 -32 -105 -61 -212 -29 -107 -72 -266 -96 -354 -24 -87 -41 -162 -38
-167 11 -19 147 -92 206 -111 153 -49 212 -56 428 -54 247 2 314 15 604 112
113 37 259 78 344 95 166 33 292 70 340 99 98 60 96 187 -6 337 -98 144 -342
312 -580 397 -155 55 -379 83 -532 66z"/>
<path d="M13512 24648 c-11 -29 -47 -133 -82 -232 -50 -144 -59 -180 -49 -188
8 -5 31 -18 52 -29 30 -16 36 -24 32 -42 -4 -19 -12 -98 -31 -312 -3 -33 -7
-71 -9 -85 -2 -14 -6 -61 -10 -105 -3 -44 -8 -96 -10 -115 -17 -137 -103
-1085 -114 -1260 -21 -324 -46 -1071 -56 -1645 -4 -181 -8 -372 -10 -423 l-3
-92 67 -19 c55 -17 398 -118 846 -249 55 -17 101 -29 103 -27 3 3 -44 580 -83
1015 -35 398 -65 735 -71 810 -28 347 -98 965 -149 1325 -48 337 -141 892
-193 1160 l-20 100 44 47 c24 26 44 51 44 55 0 6 -253 339 -273 359 -3 3 -14
-19 -25 -48z"/>
<path d="M29651 23804 c0 -11 3 -14 6 -6 3 7 2 16 -1 19 -3 4 -6 -2 -5 -13z"/>
<path d="M29642 23740 c0 -14 2 -19 5 -12 2 6 2 18 0 25 -3 6 -5 1 -5 -13z"/>
<path d="M29632 23670 c0 -14 2 -19 5 -12 2 6 2 18 0 25 -3 6 -5 1 -5 -13z"/>
<path d="M29622 23610 c0 -14 2 -19 5 -12 2 6 2 18 0 25 -3 6 -5 1 -5 -13z"/>
<path d="M29612 23535 c0 -16 2 -22 5 -12 2 9 2 23 0 30 -3 6 -5 -1 -5 -18z"/>
<path d="M29602 23480 c0 -14 2 -19 5 -12 2 6 2 18 0 25 -3 6 -5 1 -5 -13z"/>
<path d="M29586 23389 c-4 -28 -5 -53 -3 -56 3 -2 8 19 12 47 4 28 5 53 2 56
-2 3 -7 -19 -11 -47z"/>
<path d="M29572 23290 c0 -14 2 -19 5 -12 2 6 2 18 0 25 -3 6 -5 1 -5 -13z"/>
<path d="M29562 23225 c0 -16 2 -22 5 -12 2 9 2 23 0 30 -3 6 -5 -1 -5 -18z"/>
<path d="M29552 23170 c0 -14 2 -19 5 -12 2 6 2 18 0 25 -3 6 -5 1 -5 -13z"/>
<path d="M29542 23110 c0 -14 2 -19 5 -12 2 6 2 18 0 25 -3 6 -5 1 -5 -13z"/>
<path d="M29531 23054 c0 -11 3 -14 6 -6 3 7 2 16 -1 19 -3 4 -6 -2 -5 -13z"/>
<path d="M29521 22994 c0 -11 3 -14 6 -6 3 7 2 16 -1 19 -3 4 -6 -2 -5 -13z"/>
<path d="M31581 22874 c0 -11 3 -14 6 -6 3 7 2 16 -1 19 -3 4 -6 -2 -5 -13z"/>
<path d="M31572 22820 c0 -14 2 -19 5 -12 2 6 2 18 0 25 -3 6 -5 1 -5 -13z"/>
<path d="M31562 22765 c0 -16 2 -22 5 -12 2 9 2 23 0 30 -3 6 -5 -1 -5 -18z"/>
<path d="M31551 22704 c0 -11 3 -14 6 -6 3 7 2 16 -1 19 -3 4 -6 -2 -5 -13z"/>
<path d="M31542 22650 c0 -14 2 -19 5 -12 2 6 2 18 0 25 -3 6 -5 1 -5 -13z"/>
<path d="M31531 22584 c0 -11 3 -14 6 -6 3 7 2 16 -1 19 -3 4 -6 -2 -5 -13z"/>
<path d="M31522 22530 c0 -14 2 -19 5 -12 2 6 2 18 0 25 -3 6 -5 1 -5 -13z"/>
<path d="M31703 22483 c93 -2 241 -2 330 0 89 1 14 3 -168 3 -181 0 -254 -2
-162 -3z"/>
<path d="M19530 22335 c0 -2 -121 -449 -269 -992 -686 -2513 -802 -2939 -807
-2955 -5 -16 -22 -18 -171 -18 -91 0 -204 -4 -252 -10 -47 -5 -140 -14 -206
-20 -66 -5 -196 -26 -290 -45 -93 -19 -212 -38 -263 -42 -51 -3 -90 -8 -88
-11 3 -2 1520 -3 3373 -3 l3368 2 2 77 c1 64 17 130 88 382 48 168 156 550
241 850 86 300 215 757 289 1015 74 259 211 742 305 1075 94 333 177 624 185
646 l13 41 -61 7 c-69 7 -5457 8 -5457 1z m2687 -1711 c153 -89 147 -326 -12
-485 -78 -78 -151 -113 -245 -117 -115 -5 -187 34 -230 125 -19 41 -22 60 -18
133 3 73 9 94 38 148 103 193 318 284 467 196z"/>
<path d="M35901 21887 c-84 -104 -373 -139 -811 -98 -506 46 -1039 60 -2950
77 -751 6 -2001 -9 -2262 -28 -229 -17 -343 -15 -392 6 -22 9 -41 15 -42 13
-7 -6 -44 -258 -64 -422 -49 -426 -103 -1197 -145 -2075 -28 -584 -45 -983
-45 -1052 l0 -68 3490 0 3490 0 0 38 c0 20 -9 170 -20 332 -11 162 -22 338
-25 390 -3 52 -7 122 -10 155 -6 83 -11 152 -45 685 -16 256 -32 501 -35 545
-8 122 -62 956 -81 1255 -9 146 -19 268 -23 271 -3 4 -17 -7 -30 -24z"/>
<path d="M52277 21428 c58 -118 514 -1059 726 -1498 43 -91 149 -309 235 -485
85 -176 172 -356 192 -400 21 -44 100 -208 177 -365 76 -157 154 -320 173
-362 l35 -77 659 -1 c363 0 657 3 654 6 -4 3 -116 9 -250 13 -277 8 -298 14
-327 82 l-16 39 -309 2 -309 3 -151 310 c-83 171 -256 529 -385 795 -129 267
-284 586 -344 710 -60 124 -131 270 -157 325 -46 97 -85 178 -334 689 -64 131
-116 241 -116 243 0 1 1031 2 2291 1 l2290 -3 390 -715 c215 -393 405 -742
423 -775 18 -33 122 -224 231 -424 l199 -364 64 6 c36 4 67 8 69 11 2 2 -78
154 -178 337 -180 331 -377 693 -728 1339 -101 184 -226 415 -279 512 l-97
178 -2447 0 -2446 0 65 -132z"/>
<path d="M9185 18814 c-381 -72 -724 -172 -980 -286 -302 -134 -676 -423 -938
-725 l-37 -43 103 -107 c448 -469 1104 -1190 1603 -1763 209 -239 544 -632
684 -800 62 -75 101 -115 97 -100 -12 50 -77 512 -111 800 -52 431 -123 1147
-171 1720 -8 102 -17 208 -20 235 -3 28 -9 111 -15 185 -6 74 -12 162 -15 195
-7 84 -13 167 -30 415 -17 246 -23 300 -33 299 -4 0 -65 -12 -137 -25z"/>
<path d="M70215 18535 c-326 -46 -684 -124 -1079 -235 -137 -39 -255 -70 -262
-70 -7 0 -156 -48 -331 -106 -321 -107 -711 -250 -902 -331 -57 -24 -169 -71
-249 -104 -80 -33 -151 -66 -156 -73 -6 -8 -51 -30 -101 -51 -232 -96 -819
-368 -1195 -553 -526 -258 -1238 -638 -1720 -917 -102 -59 -210 -121 -240
-138 -78 -44 -682 -409 -823 -498 -65 -41 -156 -98 -204 -127 -117 -72 -684
-442 -703 -458 -9 -7 -166 -64 -350 -127 -551 -188 -1111 -390 -1610 -580
-921 -351 -1610 -649 -2125 -920 -350 -183 -575 -325 -752 -473 -150 -126
-214 -219 -372 -534 -99 -199 -120 -245 -293 -645 -430 -991 -1345 -3458
-2118 -5705 -54 -157 -132 -383 -174 -502 l-75 -218 903 0 904 0 164 188 c554
633 1028 1272 1421 1917 169 277 549 968 882 1605 179 342 195 370 195 342 0
-19 58 -1084 75 -1382 7 -129 10 -183 50 -895 36 -656 42 -762 50 -890 3 -44
12 -210 20 -370 9 -159 18 -295 20 -301 5 -17 1439 -18 1453 -1 9 11 47 130
277 857 271 857 504 1687 575 2045 15 78 47 319 71 536 23 217 44 395 44 397
1 1 89 -40 196 -92 320 -155 627 -276 994 -391 83 -26 155 -51 160 -55 35 -26
566 -140 861 -185 498 -76 845 -99 1399 -92 231 2 467 10 525 16 58 6 197 20
310 31 376 37 875 117 1265 201 852 183 1575 456 2190 826 226 136 302 187
495 332 206 154 331 262 533 461 280 274 488 526 702 850 233 352 437 751 572
1115 136 365 253 759 302 1015 118 611 160 1010 168 1585 8 578 -21 1017 -102
1530 -13 83 -26 173 -30 200 -25 219 -161 769 -247 1000 -187 505 -538 853
-971 961 -151 38 -363 41 -592 9z m-10214 -8242 c13 -16 12 -17 -3 -4 -17 13
-22 21 -14 21 2 0 10 -8 17 -17z"/>
<path d="M13190 17837 c-3 -298 -5 -751 -5 -1007 0 -455 0 -467 23 -545 34
-118 102 -249 179 -345 76 -95 284 -307 412 -419 l83 -73 40 39 c196 189 409
595 469 893 17 81 17 743 0 1085 -20 418 -44 850 -47 854 -2 2 -79 8 -171 13
-93 4 -330 17 -528 28 -198 11 -380 20 -405 20 l-45 0 -5 -543z"/>
<path d="M55806 18371 c-19 -29 -218 -103 -336 -124 -14 -2 830 -4 1875 -4
1261 0 1713 3 1344 7 -701 9 -1073 18 -1264 31 -210 14 -712 56 -950 79 -209
21 -659 28 -669 11z"/>
<path d="M16925 18239 c8 -11 114 -9 122 3 2 5 -26 8 -62 8 -44 0 -64 -4 -60
-11z"/>
<path d="M7112 17607 c-318 -424 -572 -1022 -696 -1637 -93 -462 -149 -861
-188 -1335 -16 -197 -16 -748 0 -950 39 -485 125 -1017 227 -1410 59 -227 185
-594 297 -865 139 -335 419 -822 642 -1115 199 -262 541 -622 776 -816 578
-479 1228 -822 2065 -1088 165 -53 245 -74 595 -155 989 -230 1683 -320 2260
-295 244 11 736 52 776 64 16 5 -48 253 -128 495 -79 243 -212 580 -328 835
-18 39 -41 90 -52 115 -48 107 -273 550 -360 710 -442 810 -1017 1702 -1712
2652 -100 136 -192 263 -206 282 -76 106 -529 696 -660 861 -36 45 -78 98 -95
119 -16 21 -99 124 -184 230 -84 105 -165 206 -180 224 -103 132 -832 1006
-851 1022 -3 3 -44 50 -90 105 -139 164 -685 786 -799 910 -25 28 -84 93 -131
145 -117 131 -381 421 -460 505 -36 38 -97 103 -135 145 -39 41 -103 109 -141
150 -39 41 -94 101 -122 132 l-51 57 -69 -92z"/>
<path d="M15805 16528 c-3 -18 -19 -123 -36 -233 -97 -633 -229 -1194 -288
-1224 -9 -4 -281 3 -606 16 -546 22 -660 24 -1535 19 -520 -2 -1060 -9 -1200
-15 -832 -35 -1357 -75 -1830 -137 -191 -25 -472 -70 -498 -79 -9 -3 4 -25 40
-68 149 -171 576 -703 929 -1157 552 -709 1175 -1579 1596 -2229 669 -1034
1175 -2014 1442 -2796 65 -190 127 -398 157 -528 l18 -77 30 5 c17 3 105 17
196 31 446 70 961 199 1313 330 596 222 1070 502 1468 870 448 415 789 955
968 1534 l48 155 247 -2 c136 0 250 -3 252 -6 3 -2 0 -54 -6 -113 -17 -177
-19 -202 -30 -344 -67 -908 -67 -2184 0 -3320 6 -91 12 -208 15 -260 3 -52 8
-118 11 -147 l5 -52 112 -35 c62 -19 131 -40 155 -47 24 -7 41 -17 38 -23
-163 -391 -197 -480 -184 -491 7 -7 256 -200 553 -430 297 -230 608 -471 690
-535 767 -596 720 -561 727 -537 10 36 9 246 -2 337 -30 238 -93 448 -205 675
-108 221 -205 369 -365 554 -39 44 -67 81 -63 81 5 0 135 -39 290 -87 156 -47
285 -84 289 -81 3 3 92 351 198 772 106 422 195 769 198 771 2 2 26 -33 53
-78 73 -124 278 -434 394 -597 477 -670 1103 -1383 1770 -2017 l214 -203 273
0 c251 0 273 -1 278 -17 7 -24 206 -775 206 -779 0 -2 563 -4 1250 -4 1043 0
1250 2 1250 13 0 59 -305 383 -470 499 -172 122 -369 223 -575 297 -54 20 -62
26 -77 64 -24 58 -398 970 -645 1572 -268 654 -512 1249 -658 1605 -35 85
-107 261 -161 390 -53 129 -151 370 -219 535 -67 165 -175 428 -240 585 -189
459 -358 871 -443 1080 -44 107 -167 409 -275 670 -107 261 -271 662 -365 890
-94 228 -191 465 -216 525 -25 61 -46 117 -46 126 0 9 27 121 59 250 33 129
161 639 286 1134 124 495 294 1166 376 1492 138 548 149 598 148 680 0 48 -8
117 -17 153 l-17 65 -2200 3 -2201 2 -269 -126 c-300 -140 -498 -232 -1098
-513 -224 -105 -413 -191 -420 -190 -6 0 -34 28 -62 62 -111 137 -334 373
-530 565 l-208 202 -138 0 -138 0 -6 -32z"/>
<path d="M29130 16528 c0 -18 -7 -271 -15 -563 -14 -514 -39 -1583 -50 -2165
-5 -285 -7 -335 -25 -895 -40 -1216 -69 -2465 -90 -3875 -13 -865 -13 -3235 0
-3810 5 -239 10 -470 10 -512 l0 -78 84 0 85 0 35 -113 c19 -61 65 -213 102
-337 37 -124 71 -231 77 -238 8 -10 277 -12 1308 -12 715 0 1299 3 1299 6 0
20 -108 152 -191 235 -160 159 -357 296 -579 403 l-105 51 167 3 168 2 31 63
c181 358 341 910 524 1806 31 150 74 350 96 445 400 1700 734 3808 963 6081
45 438 96 1006 96 1059 0 23 4 36 9 30 10 -10 25 -169 76 -769 135 -1578 371
-3415 666 -5180 191 -1145 453 -2507 657 -3420 l18 -80 138 -5 138 -5 107
-350 c59 -193 111 -356 115 -363 5 -9 300 -12 1307 -12 714 0 1299 3 1299 6 0
12 -68 103 -132 175 -142 162 -375 333 -613 450 l-140 69 143 0 142 0 0 43 c0
23 -11 209 -25 412 -13 204 -27 408 -30 455 -49 765 -125 1955 -140 2185 -5
73 -77 1185 -90 1385 -3 47 -17 252 -30 455 -13 204 -34 514 -45 690 -11 176
-22 352 -25 390 -3 39 -16 248 -30 465 -27 427 -91 1425 -100 1555 -3 44 -23
357 -45 695 -22 338 -42 647 -45 685 -2 39 -7 108 -10 155 -3 47 -21 326 -40
620 -19 294 -37 576 -40 625 -3 50 -8 113 -10 140 -2 28 -16 248 -30 490 -15
242 -29 450 -31 463 l-4 22 -3575 0 -3575 0 0 -32z"/>
<path d="M42888 7253 c7 -3 16 -2 19 1 4 3 -2 6 -13 5 -11 0 -14 -3 -6 -6z"/>
<path d="M42778 7223 c7 -3 16 -2 19 1 4 3 -2 6 -13 5 -11 0 -14 -3 -6 -6z"/>
<path d="M42698 7203 c7 -3 16 -2 19 1 4 3 -2 6 -13 5 -11 0 -14 -3 -6 -6z"/>
<path d="M42545 7160 c-13 -6 -15 -9 -5 -9 8 0 22 4 30 9 18 12 2 12 -25 0z"/>
<path d="M41918 6909 c-21 -11 -38 -22 -38 -24 0 -3 18 4 40 15 22 11 40 23
40 25 0 7 0 7 -42 -16z"/>
<path d="M41843 6870 c-13 -5 -23 -11 -23 -14 0 -7 40 6 46 15 6 10 6 10 -23
-1z"/>
<path d="M41764 6824 c-18 -14 -18 -15 4 -4 12 6 22 13 22 15 0 8 -5 6 -26
-11z"/>
<path d="M41405 6604 l-30 -26 33 22 c17 12 32 23 32 26 0 7 -4 5 -35 -22z"/>
<path d="M41319 6543 c-13 -16 -12 -17 4 -4 9 7 17 15 17 17 0 8 -8 3 -21 -13z"/>
<path d="M41279 6513 c-13 -16 -12 -17 4 -4 16 13 21 21 13 21 -2 0 -10 -8
-17 -17z"/>
<path d="M41034 6318 l-19 -23 23 19 c12 11 22 21 22 23 0 8 -8 2 -26 -19z"/>
<path d="M40884 6178 l-29 -33 33 29 c17 17 32 31 32 33 0 8 -8 1 -36 -29z"/>
<path d="M40840 6130 c-9 -6 -10 -10 -3 -10 6 0 15 5 18 10 8 12 4 12 -15 0z"/>
<path d="M40539 5783 c-13 -16 -12 -17 4 -4 9 7 17 15 17 17 0 8 -8 3 -21 -13z"/>
<path d="M40509 5743 c-13 -16 -12 -17 4 -4 9 7 17 15 17 17 0 8 -8 3 -21 -13z"/>
<path d="M40459 5673 c-13 -16 -12 -17 4 -4 16 13 21 21 13 21 -2 0 -10 -8
-17 -17z"/>
<path d="M40215 5259 c-4 -6 -5 -12 -2 -15 2 -3 7 2 10 11 7 17 1 20 -8 4z"/>
<path d="M40156 5135 c-9 -26 -7 -32 5 -12 6 10 9 21 6 23 -2 3 -7 -2 -11 -11z"/>
<path d="M40076 4935 c-9 -26 -7 -32 5 -12 6 10 9 21 6 23 -2 3 -7 -2 -11 -11z"/>
<path d="M54640 4743 c-656 -57 -1147 -254 -1495 -598 -87 -86 -165 -180 -165
-199 0 -3 515 -6 1144 -6 l1144 0 21 62 c11 35 61 202 111 372 51 170 94 315
97 322 4 12 -89 26 -292 43 -94 8 -487 11 -565 4z"/>
<path d="M59406 4739 c-223 -20 -524 -82 -696 -144 -295 -107 -524 -241 -720
-422 -72 -67 -190 -205 -190 -224 0 -5 442 -9 1144 -9 l1145 0 25 83 c13 45
41 138 61 207 21 69 61 204 90 300 l53 175 -88 12 c-216 30 -622 41 -824 22z"/>
<path d="M39932 4300 c0 -14 2 -19 5 -12 2 6 2 18 0 25 -3 6 -5 1 -5 -13z"/>
<path d="M39922 4205 c0 -16 2 -22 5 -12 2 9 2 23 0 30 -3 6 -5 -1 -5 -18z"/>
<path d="M39913 4065 c0 -27 2 -38 4 -22 2 15 2 37 0 50 -2 12 -4 0 -4 -28z"/>
</g>
</svg>
