<svg width="273" height="52" viewBox="0 0 273 52" fill="none" xmlns="http://www.w3.org/2000/svg">
<path d="M157.015 49.0001V43.889C157.015 41.1779 155.938 38.5778 154.021 36.6608C152.104 34.7437 149.504 33.6667 146.793 33.6667H126.349C123.638 33.6667 121.037 34.7437 119.12 36.6608C117.203 38.5778 116.126 41.1779 116.126 43.889V49.0001" stroke="#5CA720" stroke-width="4.77037" stroke-linecap="round" stroke-linejoin="round"/>
<path d="M136.571 23.4444C142.217 23.4444 146.793 18.8678 146.793 13.2222C146.793 7.57664 142.217 3 136.571 3C130.925 3 126.349 7.57664 126.349 13.2222C126.349 18.8678 130.925 23.4444 136.571 23.4444Z" stroke="#5CA720" stroke-width="4.77037" stroke-linecap="round" stroke-linejoin="round"/>
<path d="M244.121 46.1198C245.148 46.1198 245.98 45.2876 245.98 44.2612C245.98 43.2347 245.148 42.4026 244.121 42.4026C243.095 42.4026 242.263 43.2347 242.263 44.2612C242.263 45.2876 243.095 46.1198 244.121 46.1198Z" stroke="#5CA720" stroke-width="4.77037" stroke-linecap="round" stroke-linejoin="round"/>
<path d="M264.566 46.1198C265.593 46.1198 266.425 45.2876 266.425 44.2612C266.425 43.2347 265.593 42.4026 264.566 42.4026C263.54 42.4026 262.708 43.2347 262.708 44.2612C262.708 45.2876 263.54 46.1198 264.566 46.1198Z" stroke="#5CA720" stroke-width="4.77037" stroke-linecap="round" stroke-linejoin="round"/>
<path d="M229.252 7.08887H236.687L241.668 31.9753C241.838 32.831 242.303 33.5997 242.983 34.1467C243.662 34.6938 244.513 34.9844 245.385 34.9677H263.45C264.323 34.9844 265.173 34.6938 265.853 34.1467C266.532 33.5997 266.998 32.831 267.168 31.9753L270.141 16.3818H238.545" stroke="#5CA720" stroke-width="4.77037" stroke-linecap="round" stroke-linejoin="round"/>
<path d="M18.6741 37.0742C27.3306 37.0742 34.3481 30.0567 34.3481 21.4001C34.3481 12.7436 27.3306 5.72607 18.6741 5.72607C10.0175 5.72607 3 12.7436 3 21.4001C3 30.0567 10.0175 37.0742 18.6741 37.0742Z" stroke="#5CA720" stroke-width="4.11442" stroke-linecap="round" stroke-linejoin="round"/>
<path d="M43.8892 46.6149L30.2596 32.9852" stroke="#5CA720" stroke-width="4.77037" stroke-linecap="round" stroke-linejoin="round"/>
</svg>
